<svg id="visual" viewBox="0 0 960 540" width="960" height="540" xmlns="http://www.w3.org/2000/svg" xmlns:xlink="http://www.w3.org/1999/xlink" version="1.1"><rect width="960" height="540" fill="#000000"></rect><g><g transform="translate(690 29)"><path d="M54 -14.8C62.2 7.8 55.8 37.8 37.9 50.3C20.1 62.8 -9.1 57.8 -29.6 42.5C-50.1 27.2 -62 1.6 -55.6 -18.5C-49.2 -38.6 -24.6 -53.2 -0.9 -52.9C22.9 -52.6 45.8 -37.4 54 -14.8Z" stroke="#FFFFFF" fill="none" stroke-width="20"></path></g><g transform="translate(803 352)"><path d="M52.3 -18.2C59.1 3.7 49.7 29.6 31.5 42.6C13.3 55.7 -13.7 55.9 -32.4 42.7C-51.1 29.6 -61.5 3.1 -54.7 -18.8C-47.9 -40.7 -23.9 -58.1 -0.6 -57.9C22.8 -57.7 45.6 -40 52.3 -18.2Z" stroke="#FFFFFF" fill="none" stroke-width="20"></path></g><g transform="translate(917 127)"><path d="M39.2 -11.3C44.3 2.7 37.2 22.1 24.4 30.8C11.5 39.5 -7.1 37.5 -19 28.4C-30.8 19.3 -35.8 3 -31.5 -10C-27.2 -23.1 -13.6 -32.9 1.8 -33.4C17.1 -34 34.2 -25.3 39.2 -11.3Z" stroke="#FFFFFF" fill="none" stroke-width="20"></path></g><g transform="translate(408 209)"><path d="M45.8 -13.1C53.2 7.8 48.7 34.3 32.3 46.8C15.9 59.3 -12.5 57.7 -30 44.3C-47.5 30.8 -54.2 5.5 -47.4 -14.5C-40.6 -34.6 -20.3 -49.4 -0.5 -49.3C19.2 -49.1 38.5 -33.9 45.8 -13.1Z" stroke="#FFFFFF" fill="none" stroke-width="20"></path></g><g transform="translate(6 158)"><path d="M51.6 -16.9C58.5 4.4 49.9 30.7 31.7 43.9C13.5 57.2 -14.3 57.6 -33.2 44.2C-52.2 30.9 -62.2 3.7 -55.1 -17.8C-48.1 -39.4 -24.1 -55.3 -0.9 -55C22.3 -54.7 44.7 -38.3 51.6 -16.9Z" stroke="#FFFFFF" fill="none" stroke-width="20"></path></g><g transform="translate(598 226)"><path d="M34.9 -11.7C39.7 3.7 34.5 21.9 21.3 32.1C8.2 42.3 -12.8 44.4 -26.7 34.7C-40.7 25 -47.7 3.6 -42.1 -12.7C-36.4 -29.1 -18.2 -40.4 -1.6 -39.9C15 -39.4 30 -27 34.9 -11.7Z" stroke="#FFFFFF" fill="none" stroke-width="20"></path></g><g transform="translate(241 459)"><path d="M52.5 -17.8C58.2 0.6 46.3 23.9 28.8 35.7C11.2 47.5 -11.8 47.8 -28.2 36.5C-44.6 25.1 -54.3 2.2 -48.4 -16.3C-42.6 -34.8 -21.3 -48.9 1 -49.3C23.4 -49.6 46.7 -36.2 52.5 -17.8Z" stroke="#FFFFFF" fill="none" stroke-width="20"></path></g><g transform="translate(479 482)"><path d="M35.8 -11.4C40.6 3.2 34.8 21.6 22.6 30.2C10.4 38.8 -8.1 37.7 -20.1 28.7C-32.2 19.8 -37.7 2.8 -33.3 -11.3C-28.8 -25.4 -14.4 -36.8 0.5 -36.9C15.5 -37.1 31 -26.1 35.8 -11.4Z" stroke="#FFFFFF" fill="none" stroke-width="20"></path></g><g transform="translate(226 120)"><path d="M29.7 -10.6C33.1 0.9 26.8 14.6 16.6 21.8C6.3 29 -7.9 29.8 -17.4 23.1C-27 16.4 -31.8 2.2 -28.1 -9.6C-24.4 -21.4 -12.2 -31 0.5 -31.1C13.1 -31.3 26.2 -22 29.7 -10.6Z" stroke="#FFFFFF" fill="none" stroke-width="20"></path></g><g transform="translate(775 518)"><path d="M36.6 -10.5C41.7 3.9 36.2 23.1 23.9 31.9C11.5 40.6 -7.7 38.9 -21.3 29.1C-34.9 19.3 -42.9 1.4 -38.4 -12.1C-33.9 -25.6 -16.9 -34.8 -0.6 -34.6C15.7 -34.4 31.5 -24.9 36.6 -10.5Z" stroke="#FFFFFF" fill="none" stroke-width="20"></path></g><g transform="translate(16 360)"><path d="M30.2 -9.8C33.6 0.6 27 14.3 16.9 21.1C6.8 27.9 -6.7 27.9 -15.9 21.3C-25.1 14.8 -30 1.7 -26.6 -8.6C-23.2 -18.9 -11.6 -26.5 0.9 -26.8C13.4 -27.1 26.8 -20.1 30.2 -9.8Z" stroke="#FFFFFF" fill="none" stroke-width="20"></path></g><g transform="translate(414 10)"><path d="M38.5 -13.7C44.1 4.7 38.9 25.5 25.1 35.9C11.3 46.2 -11 46.1 -24.4 35.8C-37.8 25.6 -42.3 5.2 -36.7 -13.2C-31.1 -31.6 -15.6 -48.1 0.4 -48.3C16.4 -48.4 32.9 -32.2 38.5 -13.7Z" stroke="#FFFFFF" fill="none" stroke-width="20"></path></g><g transform="translate(35 532)"><path d="M24 -8.2C27.2 2 23.1 14.2 14.8 20.2C6.5 26.1 -6.1 25.9 -14.3 19.9C-22.5 13.8 -26.4 2 -23.3 -8.1C-20.2 -18.2 -10.1 -26.5 0.1 -26.5C10.4 -26.6 20.8 -18.4 24 -8.2Z" stroke="#FFFFFF" fill="none" stroke-width="20"></path></g><g transform="translate(958 535)"><path d="M41.6 -12.9C46.7 2 38.5 21.8 23.6 32.6C8.8 43.5 -12.8 45.3 -25.7 35.8C-38.6 26.3 -42.9 5.5 -37.2 -10.4C-31.5 -26.2 -15.7 -37.1 1.3 -37.6C18.3 -38 36.6 -27.9 41.6 -12.9Z" stroke="#FFFFFF" fill="none" stroke-width="20"></path></g><g transform="translate(247 288)"><path d="M26.9 -9.6C30.2 1.4 25 14.3 15.8 20.7C6.6 27.2 -6.6 27.2 -14.8 21.1C-22.9 15 -26.1 2.7 -22.8 -8.2C-19.5 -19.2 -9.7 -28.9 1 -29.2C11.8 -29.6 23.6 -20.5 26.9 -9.6Z" stroke="#FFFFFF" fill="none" stroke-width="20"></path></g></g></svg>