<svg id="visual" viewBox="0 0 1920 1080" width="1920" height="1080" xmlns="http://www.w3.org/2000/svg" xmlns:xlink="http://www.w3.org/1999/xlink" version="1.1"><rect x="0" y="0" width="1920" height="1080" fill="#FFFFFF"></rect><path d="M1316 1080L1512 1080L1512 900L1205 900L1205 720L1559 720L1559 540L1295 540L1295 360L1497 360L1497 180L1560 180L1560 0L1920 0L1920 180L1920 180L1920 360L1920 360L1920 540L1920 540L1920 720L1920 720L1920 900L1920 900L1920 1080L1920 1080Z" fill="#9900ff"></path><path d="M1580 1080L1618 1080L1618 900L1580 900L1580 720L1379 720L1379 540L1426 540L1426 360L1378 360L1378 180L1470 180L1470 0L1920 0L1920 180L1920 180L1920 360L1920 360L1920 540L1920 540L1920 720L1920 720L1920 900L1920 900L1920 1080L1920 1080Z" fill="#8200d9"></path><path d="M1768 1080L1765 1080L1765 900L1635 900L1635 720L1758 720L1758 540L1568 540L1568 360L1765 360L1765 180L1551 180L1551 0L1920 0L1920 180L1920 180L1920 360L1920 360L1920 540L1920 540L1920 720L1920 720L1920 900L1920 900L1920 1080L1920 1080Z" fill="#6c00b4"></path><path d="M1710 1080L1760 1080L1760 900L1715 900L1715 720L1727 720L1727 540L1787 540L1787 360L1745 360L1745 180L1694 180L1694 0L1920 0L1920 180L1920 180L1920 360L1920 360L1920 540L1920 540L1920 720L1920 720L1920 900L1920 900L1920 1080L1920 1080Z" fill="#560090"></path></svg>