<svg id="visual" viewBox="0 0 1920 1080" width="1920" height="1080" xmlns="http://www.w3.org/2000/svg" xmlns:xlink="http://www.w3.org/1999/xlink" version="1.1"><path d="M0 120L384 131L768 141L1152 77L1536 109L1920 120L1920 0L1536 0L1152 0L768 0L384 0L0 0Z" fill="#6600ff"></path><path d="M0 347L384 379L768 271L1152 282L1536 314L1920 336L1920 118L1536 107L1152 75L768 139L384 129L0 118Z" fill="#5432ff"></path><path d="M0 444L384 433L768 368L1152 368L1536 368L1920 411L1920 334L1536 312L1152 280L768 269L384 377L0 345Z" fill="#4248ff"></path><path d="M0 627L384 649L768 595L1152 703L1536 573L1920 638L1920 409L1536 366L1152 366L768 366L384 431L0 442Z" fill="#3359ff"></path><path d="M0 681L384 692L768 671L1152 746L1536 649L1920 714L1920 636L1536 571L1152 701L768 593L384 647L0 625Z" fill="#2a66ff"></path><path d="M0 757L384 768L768 746L1152 800L1536 725L1920 768L1920 712L1536 647L1152 744L768 669L384 690L0 679Z" fill="#2a72fd"></path><path d="M0 887L384 876L768 919L1152 919L1536 887L1920 930L1920 766L1536 723L1152 798L768 744L384 766L0 755Z" fill="#337dfa"></path><path d="M0 984L384 951L768 973L1152 962L1536 973L1920 973L1920 928L1536 885L1152 917L768 917L384 874L0 885Z" fill="#4187f5"></path><path d="M0 1081L384 1081L768 1081L1152 1081L1536 1081L1920 1081L1920 971L1536 971L1152 960L768 971L384 949L0 982Z" fill="#5090f0"></path></svg>