<svg id="visual" viewBox="0 0 960 540" width="960" height="540" xmlns="http://www.w3.org/2000/svg" xmlns:xlink="http://www.w3.org/1999/xlink" version="1.1"><path d="M0 93L192 131L384 77L576 163L768 93L960 109L960 0L768 0L576 0L384 0L192 0L0 0Z" fill="#6600ff"></path><path d="M0 125L192 185L384 120L576 185L768 141L960 158L960 107L768 91L576 161L384 75L192 129L0 91Z" fill="#5432ff"></path><path d="M0 158L192 217L384 158L576 222L768 174L960 185L960 156L768 139L576 183L384 118L192 183L0 123Z" fill="#4248ff"></path><path d="M0 206L192 276L384 206L576 298L768 276L960 271L960 183L768 172L576 220L384 156L192 215L0 156Z" fill="#3359ff"></path><path d="M0 357L192 357L384 390L576 395L768 406L960 411L960 269L768 274L576 296L384 204L192 274L0 204Z" fill="#2a66ff"></path><path d="M0 406L192 411L384 433L576 449L768 449L960 444L960 409L768 404L576 393L384 388L192 355L0 355Z" fill="#2a72fd"></path><path d="M0 465L192 471L384 498L576 476L768 476L960 471L960 442L768 447L576 447L384 431L192 409L0 404Z" fill="#337dfa"></path><path d="M0 492L192 509L384 519L576 509L768 492L960 498L960 469L768 474L576 474L384 496L192 469L0 463Z" fill="#4187f5"></path><path d="M0 541L192 541L384 541L576 541L768 541L960 541L960 496L768 490L576 507L384 517L192 507L0 490Z" fill="#5090f0"></path></svg>