<svg id="visual" viewBox="0 0 540 960" width="540" height="960" xmlns="http://www.w3.org/2000/svg" xmlns:xlink="http://www.w3.org/1999/xlink" version="1.1"><path d="M0 164L108 231L216 135L324 289L432 164L540 193L540 0L432 0L324 0L216 0L108 0L0 0Z" fill="#6600ff"></path><path d="M0 222L108 327L216 212L324 327L432 251L540 279L540 191L432 162L324 287L216 133L108 229L0 162Z" fill="#5432ff"></path><path d="M0 279L108 385L216 279L324 395L432 308L540 327L540 277L432 249L324 325L216 210L108 325L0 220Z" fill="#4248ff"></path><path d="M0 366L108 491L216 366L324 529L432 491L540 481L540 325L432 306L324 393L216 277L108 383L0 277Z" fill="#3359ff"></path><path d="M0 635L108 635L216 692L324 702L432 721L540 731L540 479L432 489L324 527L216 364L108 489L0 364Z" fill="#2a66ff"></path><path d="M0 721L108 731L216 769L324 798L432 798L540 788L540 729L432 719L324 700L216 690L108 633L0 633Z" fill="#2a72fd"></path><path d="M0 827L108 836L216 884L324 846L432 846L540 836L540 786L432 796L324 796L216 767L108 729L0 719Z" fill="#337dfa"></path><path d="M0 875L108 903L216 923L324 903L432 875L540 884L540 834L432 844L324 844L216 882L108 834L0 825Z" fill="#4187f5"></path><path d="M0 961L108 961L216 961L324 961L432 961L540 961L540 882L432 873L324 901L216 921L108 901L0 873Z" fill="#5090f0"></path></svg>